<?xml version="1.0" encoding="utf-8"?>
<?xml-stylesheet type="text/xsl" href="rss1.xsl"?>
<rss version="2.0" xmlns:atom="http://www.w3.org/2005/Atom" xmlns:content="http://purl.org/rss/1.0/modules/content/" xmlns:dc="http://purl.org/dc/elements/1.1/" xmlns:media="http://search.yahoo.com/mrss/">
<channel>
 <title>Getty</title>
 <link>http://www.gettyimg.com/</link>
 <atom:link href="http://www.gettyimg.com/" rel="self" type="application/rss+xml" />

 
                <item>
                <title><![CDATA[【Cinema Center】MOVIE - Godzilla.x.Kong.The.New.Empire.2024.1080p.MAX.WEB-DL.DDP5.1.Atmos.x264-Samuel]]></title>
                <link><![CDATA[https://sharemania.us/threads/godzilla-x-kong-the-new-empire-2024-1080p-max-web-dl-ddp5-1-atmos-x264-samuel.249138/]]></link>
                <description><![CDATA[<article>
<blockquote class="messageText SelectQuoteContainer ugc baseHtml">
<div style="text-align: center"><b><span style="font-size: 26px">Godzilla x Kong: The New Empire</span></b><br>
<img src="https://i.imgur.com/Hzz7PZC.jpeg" class="bbCodeImage LbImage" alt="[​IMG]" data-url="https://i.imgur.com/Hzz7PZC.jpeg" style=""><br>
<b><a href="https://i.imgur.com/e5ftogZ.jpeg" target="_blank" class="externalLink" rel="nofollow">Alternate Artwork 1</a></b> | <b><a href="https://i.imgur.com/JQ0gKJH.jpeg" target="_blank" class="externalLink" rel="nofollow">Alternate Artwork 2</a></b> | <b><a href="https://i.imgur.com/HIVohRn.jpeg" target="_blank" class="externalLink" rel="nofollow">Poster 1</a></b> | <b><a href="https://i.imgur.com/wEQgstF.jpeg" target="_blank" class="externalLink" rel="nofollow">Poster 2</a></b> | <b><a href="https://i.imgur.com/CBU8gnt.jpeg" target="_blank" class="externalLink" rel="nofollow">Poster 3</a></b> | <b><a href="https://i.imgur.com/rm1wFRI.jpeg" target="_blank" class="externalLink" rel="nofollow">Poster 4</a></b> | <b><a href="https://i.imgur.com/eSxjYlm.jpeg" target="_blank" class="externalLink" rel="nofollow">Background Art 1</a></b> | <b><a href="https://i.imgur.com/66MH6RZ.jpeg" target="_blank" class="externalLink" rel="nofollow">Background Art 2</a></b> | <b><a href="https://i.imgur.com/y9qmbov.jpeg" target="_blank" class="externalLink" rel="nofollow">Key Art</a></b><br>
<br>
PG‑13 • 1h 55m • 2024 • <img src="https://i.imgur.com/lzcgXMm.png" class="bbCodeImage LbImage" alt="[​IMG]" data-url="https://i.imgur.com/lzcgXMm.png" style=""> <img src="https://i.imgur.com/fxXorAB.png" class="bbCodeImage LbImage" alt="[​IMG]" data-url="https://i.imgur.com/fxXorAB.png" style=""><br>
Adventure • Fantasy &amp; Sci-Fi<br>
<br>
<div class="bbCodeBlock bbCodeQuote">
<aside>
<blockquote class="quoteContainer"><div class="quote"><b><span style="font-size: 15px"><span style="font-family: 'Arial'">Description</span></span></b><br>
The ultimate Titan team-up! Godzilla and Kong face a colossal threat from Hollow World, challenging their very existence — and our own.</div><div class="quoteExpand">Click to expand...</div></blockquote>
</aside>
</div>
<div class="bbCodeBlock bbCodeQuote">
<aside>
<blockquote class="quoteContainer"><div class="quote"><b><span style="font-size: 15px"><span style="font-family: 'Arial'">Trailers &amp; Clips</span></span></b><br>
<span data-s9e-mediaembed="googledrive" style="display:inline-block;width:100%;max-width:640px"><span style="display:block;overflow:hidden;position:relative;padding-bottom:75%"><iframe allowfullscreen="" loading="lazy" scrolling="no" src="//drive.google.com/file/d/14vS5-iHTIzBqSIQ93Sl9jIZoV4_iUVOe/preview" style="border:0;height:100%;left:0;position:absolute;width:100%"></iframe></span></span></div><div class="quoteExpand quoteCut">Click to expand...</div></blockquote>
</aside>
</div>
<div class="bbCodeBlock bbCodeQuote">
<aside>
<blockquote class="quoteContainer"><div class="quote"><b><span style="font-size: 15px"><span style="font-family: 'Arial'">Details</span></span></b><br>
<b>Rating Information</b><br>
PG‑13<br>
<br>
<b>Subtitle Languages</b><br>
Spanish (Spain), Spanish, Polish, Czech, Portuguese, Macedonian, Hungarian, Romanian (Moldova), Slovak, Finnish, Swedish, Spanish - CC, English, French, Portuguese (Brazil), Dutch, Bulgarian, Slovenian, Croatian, English - CC, Serbian, Danish, Catalan<br>
<br>
<b>Audio Languages</b><br>
English - Original, English - Audio Description, French, Hungarian, Portuguese (Brazil) - Audio Description, Portuguese (Brazil), Spanish, Slovak, Czech, Spanish (Spain), Polish, Catalan<br>
<br>
<b>Starring</b><br>
Rebecca Hall, Bryan Tyree Henry, Kaylee Hottle, Dan Stevens<br>
<br>
<b>Director</b><br>
Adam Wingard<br>
<br>
<b>Writers</b><br>
Terry Rossio, Simon Barrett, Jeremy Slater<br>
<br>
<b>Producers</b><br>
Jay Ashenfelter, Yoshimitsu Banno, Jennifer Conroy, Alex Garcia, Eric McLeod, Mary Parent</div><div class="quoteExpand quoteCut">Click to expand...</div></blockquote>
</aside>
</div>
<div class="bbCodeBlock bbCodeQuote">
<aside>
<blockquote class="quoteContainer"><div class="quote"><b><span style="font-size: 15px"><span style="font-family: 'Arial'">Source</span></span></b><br>
<img src="https://i.imgur.com/CCXkKzZ.png" class="bbCodeImage LbImage" alt="[​IMG]" data-url="https://i.imgur.com/CCXkKzZ.png" style=""></div><div class="quoteExpand">Click to expand...</div></blockquote>
</aside>
</div>
<div class="bbCodeBlock bbCodeQuote">
<aside>
<blockquote class="quoteContainer"><div class="quote"><b><span style="font-size: 15px">Release Name</span></b><br>
Godzilla.x.Kong.The.New.Empire.2024.1080p.MAX.WEB-DL.DDP5.1.Atmos.x264-Samuel<br>
Godzilla.X.Kong.Godzilla.Evolved.2024.1080p.MAX.WEB-DL.DDP2.0.x264-Samuel<br>
Godzilla.X.Kong.Kongs.Journey.2024.1080p.MAX.WEB-DL.DDP2.0.x264-Samuel</div><div class="quoteExpand">Click to expand...</div></blockquote>
</aside>
</div>
<div class="ToggleTriggerAnchor bbCodeSpoilerContainer">
<button type="button" class="button bbCodeSpoilerButton ToggleTrigger Tooltip JsOnly" data-target="> .SpoilerTarget"><span>Spoiler: <span class="SpoilerTitle">Media Information - Movie</span></span></button>
<div class="SpoilerTarget bbCodeSpoilerText">General<br>
Complete name : Godzilla.x.Kong.The.New.Empire.2024.1080p.MAX.WEB-DL.DDP5.1.Atmos.x264-Samuel.mkv<br>
Format : Matroska<br>
Format version : Version 4<br>
File size : 8.81 GiB<br>
Duration : 1 h 54 min<br>
Overall bit rate mode : Variable<br>
Overall bit rate : 11.0 Mb/s<br>
Frame rate : 23.976 FPS<br>
Encoded date : 2024-07-05 19:25:52 UTC<br>
Writing application : mkvmerge v85.0 ('Shame For You') 64-bit<br>
Writing library : libebml v1.4.5 + libmatroska v1.7.1<br>
<br>
Video<br>
ID : 1<br>
Format : AVC<br>
Format/Info : Advanced Video Codec<br>
Format profile : High@L4.1<br>
Format settings : CABAC / 4 Ref Frames<br>
Format settings, CABAC : Yes<br>
Format settings, Reference frames : 4 frames<br>
Codec ID : V_MPEG4/ISO/AVC<br>
Duration : 1 h 54 min<br>
Bit rate mode : Variable<br>
Bit rate : 7 535 kb/s<br>
Maximum bit rate : 10 000 kb/s<br>
Width : 1 920 pixels<br>
Height : 800 pixels<br>
Display aspect ratio : 2.40:1<br>
Frame rate mode : Constant<br>
Frame rate : 23.976 (24000/1001) FPS<br>
Color space : YUV<br>
Chroma subsampling : 4:2:0<br>
Bit depth : 8 bits<br>
Scan type : Progressive<br>
Bits/(Pixel*Frame) : 0.205<br>
Stream size : 6.03 GiB (69%)<br>
Writing library : x264 core 164<br>
Encoding settings : cabac=1 / ref=4 / deblock=1:0:0 / analyse=0x3:0x133 / me=umh / subme=10 / psy=1 / psy_rd=1.00:0.00 / mixed_ref=1 / me_range=24 / chroma_me=1 / trellis=2 / 8x8dct=1 / cqm=0 / deadzone=21,11 / fast_pskip=1 / chroma_qp_offset=-2 / threads=24 / lookahead_threads=2 / sliced_threads=0 / nr=0 / decimate=1 / interlaced=0 / bluray_compat=0 / stitchable=1 / constrained_intra=0 / bframes=3 / b_pyramid=2 / b_adapt=2 / b_bias=0 / direct=3 / weightb=1 / open_gop=0 / weightp=2 / keyint=96 / keyint_min=49 / scenecut=0 / intra_refresh=0 / rc_lookahead=96 / rc=crf / mbtree=1 / crf=20.0 / qcomp=0.60 / qpmin=0 / qpmax=69 / qpstep=4 / vbv_maxrate=10000 / vbv_bufsize=40000 / crf_max=0.0 / nal_hrd=vbr / filler=0 / ip_ratio=1.40 / aq=1:1.00<br>
Default : Yes<br>
Forced : No<br>
Color range : Limited<br>
Color primaries : BT.709<br>
Transfer characteristics : BT.709<br>
Matrix coefficients : BT.709<br>
<br>
Audio #1<br>
ID : 2<br>
Format : E-AC-3 JOC<br>
Format/Info : Enhanced AC-3 with Joint Object Coding<br>
Commercial name : Dolby Digital Plus with Dolby Atmos<br>
Codec ID : A_EAC3<br>
Duration : 1 h 54 min<br>
Bit rate mode : Constant<br>
Bit rate : 640 kb/s<br>
Channel(s) : 6 channels<br>
Channel layout : L R C LFE Ls Rs<br>
Sampling rate : 48.0 kHz<br>
Frame rate : 31.250 FPS (1536 SPF)<br>
Compression mode : Lossy<br>
Stream size : 525 MiB (6%)<br>
Language : English<br>
Service kind : Complete Main<br>
Default : Yes<br>
Forced : No<br>
Complexity index : 16<br>
Number of dynamic objects : 15<br>
Bed channel count : 1 channel<br>
Bed channel configuration : LFE<br>
Dialog Normalization : -31 dB<br>
compr : -0.28 dB<br>
dmixmod : Lo/Ro<br>
ltrtcmixlev : -3.0 dB<br>
ltrtsurmixlev : -3.0 dB<br>
lorocmixlev : -3.0 dB<br>
lorosurmixlev : -3.0 dB<br>
dialnorm_Average : -31 dB<br>
dialnorm_Minimum : -31 dB<br>
dialnorm_Maximum : -31 dB<br>
<br>
Audio #2<br>
ID : 3<br>
Format : E-AC-3<br>
Format/Info : Enhanced AC-3<br>
Commercial name : Dolby Digital Plus<br>
Codec ID : A_EAC3<br>
Duration : 1 h 54 min<br>
Bit rate mode : Constant<br>
Bit rate : 256 kb/s<br>
Channel(s) : 6 channels<br>
Channel layout : L R C LFE Ls Rs<br>
Sampling rate : 48.0 kHz<br>
Frame rate : 31.250 FPS (1536 SPF)<br>
Compression mode : Lossy<br>
Stream size : 210 MiB (2%)<br>
Title : Audio Description<br>
Language : English<br>
Service kind : Complete Main<br>
Default : No<br>
Forced : No<br>
Dialog Normalization : -23 dB<br>
compr : -0.28 dB<br>
dmixmod : Lo/Ro<br>
ltrtcmixlev : -3.0 dB<br>
ltrtsurmixlev : -3.0 dB<br>
lorocmixlev : -3.0 dB<br>
lorosurmixlev : -3.0 dB<br>
dialnorm_Average : -23 dB<br>
dialnorm_Minimum : -23 dB<br>
dialnorm_Maximum : -23 dB<br>
<br>
Audio #3<br>
ID : 4<br>
Format : E-AC-3<br>
Format/Info : Enhanced AC-3<br>
Commercial name : Dolby Digital Plus<br>
Codec ID : A_EAC3<br>
Duration : 1 h 54 min<br>
Bit rate mode : Constant<br>
Bit rate : 256 kb/s<br>
Channel(s) : 6 channels<br>
Channel layout : L R C LFE Ls Rs<br>
Sampling rate : 48.0 kHz<br>
Frame rate : 31.250 FPS (1536 SPF)<br>
Compression mode : Lossy<br>
Stream size : 210 MiB (2%)<br>
Language : Catalan<br>
Service kind : Complete Main<br>
Default : No<br>
Forced : No<br>
Dialog Normalization : -23 dB<br>
compr : -0.28 dB<br>
dmixmod : Lo/Ro<br>
ltrtcmixlev : -3.0 dB<br>
ltrtsurmixlev : -3.0 dB<br>
lorocmixlev : -3.0 dB<br>
lorosurmixlev : -3.0 dB<br>
dialnorm_Average : -23 dB<br>
dialnorm_Minimum : -23 dB<br>
dialnorm_Maximum : -23 dB<br>
<br>
Audio #4<br>
ID : 5<br>
Format : E-AC-3<br>
Format/Info : Enhanced AC-3<br>
Commercial name : Dolby Digital Plus<br>
Codec ID : A_EAC3<br>
Duration : 1 h 54 min<br>
Bit rate mode : Constant<br>
Bit rate : 256 kb/s<br>
Channel(s) : 6 channels<br>
Channel layout : L R C LFE Ls Rs<br>
Sampling rate : 48.0 kHz<br>
Frame rate : 31.250 FPS (1536 SPF)<br>
Compression mode : Lossy<br>
Stream size : 210 MiB (2%)<br>
Language : Czech<br>
Service kind : Complete Main<br>
Default : No<br>
Forced : No<br>
Dialog Normalization : -23 dB<br>
compr : -0.28 dB<br>
dmixmod : Lo/Ro<br>
ltrtcmixlev : -3.0 dB<br>
ltrtsurmixlev : -3.0 dB<br>
lorocmixlev : -3.0 dB<br>
lorosurmixlev : -3.0 dB<br>
dialnorm_Average : -23 dB<br>
dialnorm_Minimum : -23 dB<br>
dialnorm_Maximum : -23 dB<br>
<br>
Audio #5<br>
ID : 6<br>
Format : E-AC-3<br>
Format/Info : Enhanced AC-3<br>
Commercial name : Dolby Digital Plus<br>
Codec ID : A_EAC3<br>
Duration : 1 h 54 min<br>
Bit rate mode : Constant<br>
Bit rate : 256 kb/s<br>
Channel(s) : 6 channels<br>
Channel layout : L R C LFE Ls Rs<br>
Sampling rate : 48.0 kHz<br>
Frame rate : 31.250 FPS (1536 SPF)<br>
Compression mode : Lossy<br>
Stream size : 210 MiB (2%)<br>
Title : Latin American<br>
Language : Spanish<br>
Service kind : Complete Main<br>
Default : No<br>
Forced : No<br>
Dialog Normalization : -23 dB<br>
compr : -0.28 dB<br>
dmixmod : Lo/Ro<br>
ltrtcmixlev : -3.0 dB<br>
ltrtsurmixlev : -3.0 dB<br>
lorocmixlev : -3.0 dB<br>
lorosurmixlev : -3.0 dB<br>
dialnorm_Average : -23 dB<br>
dialnorm_Minimum : -23 dB<br>
dialnorm_Maximum : -23 dB<br>
<br>
Audio #6<br>
ID : 7<br>
Format : E-AC-3<br>
Format/Info : Enhanced AC-3<br>
Commercial name : Dolby Digital Plus<br>
Codec ID : A_EAC3<br>
Duration : 1 h 54 min<br>
Bit rate mode : Constant<br>
Bit rate : 256 kb/s<br>
Channel(s) : 6 channels<br>
Channel layout : L R C LFE Ls Rs<br>
Sampling rate : 48.0 kHz<br>
Frame rate : 31.250 FPS (1536 SPF)<br>
Compression mode : Lossy<br>
Stream size : 210 MiB (2%)<br>
Title : European<br>
Language : Spanish<br>
Service kind : Complete Main<br>
Default : No<br>
Forced : No<br>
Dialog Normalization : -23 dB<br>
compr : -0.28 dB<br>
dmixmod : Lo/Ro<br>
ltrtcmixlev : -3.0 dB<br>
ltrtsurmixlev : -3.0 dB<br>
lorocmixlev : -3.0 dB<br>
lorosurmixlev : -3.0 dB<br>
dialnorm_Average : -23 dB<br>
dialnorm_Minimum : -23 dB<br>
dialnorm_Maximum : -23 dB<br>
<br>
Audio #7<br>
ID : 8<br>
Format : E-AC-3<br>
Format/Info : Enhanced AC-3<br>
Commercial name : Dolby Digital Plus<br>
Codec ID : A_EAC3<br>
Duration : 1 h 54 min<br>
Bit rate mode : Constant<br>
Bit rate : 256 kb/s<br>
Channel(s) : 6 channels<br>
Channel layout : L R C LFE Ls Rs<br>
Sampling rate : 48.0 kHz<br>
Frame rate : 31.250 FPS (1536 SPF)<br>
Compression mode : Lossy<br>
Stream size : 210 MiB (2%)<br>
Language : French<br>
Service kind : Complete Main<br>
Default : No<br>
Forced : No<br>
Dialog Normalization : -23 dB<br>
compr : -0.28 dB<br>
dmixmod : Lo/Ro<br>
ltrtcmixlev : -3.0 dB<br>
ltrtsurmixlev : -3.0 dB<br>
lorocmixlev : -3.0 dB<br>
lorosurmixlev : -3.0 dB<br>
dialnorm_Average : -23 dB<br>
dialnorm_Minimum : -23 dB<br>
dialnorm_Maximum : -23 dB<br>
<br>
Audio #8<br>
ID : 9<br>
Format : E-AC-3<br>
Format/Info : Enhanced AC-3<br>
Commercial name : Dolby Digital Plus<br>
Codec ID : A_EAC3<br>
Duration : 1 h 54 min<br>
Bit rate mode : Constant<br>
Bit rate : 256 kb/s<br>
Channel(s) : 6 channels<br>
Channel layout : L R C LFE Ls Rs<br>
Sampling rate : 48.0 kHz<br>
Frame rate : 31.250 FPS (1536 SPF)<br>
Compression mode : Lossy<br>
Stream size : 210 MiB (2%)<br>
Language : Hungarian<br>
Service kind : Complete Main<br>
Default : No<br>
Forced : No<br>
Dialog Normalization : -23 dB<br>
compr : -0.28 dB<br>
dmixmod : Lo/Ro<br>
ltrtcmixlev : -3.0 dB<br>
ltrtsurmixlev : -3.0 dB<br>
lorocmixlev : -3.0 dB<br>
lorosurmixlev : -3.0 dB<br>
dialnorm_Average : -23 dB<br>
dialnorm_Minimum : -23 dB<br>
dialnorm_Maximum : -23 dB<br>
<br>
Audio #9<br>
ID : 10<br>
Format : E-AC-3<br>
Format/Info : Enhanced AC-3<br>
Commercial name : Dolby Digital Plus<br>
Codec ID : A_EAC3<br>
Duration : 1 h 54 min<br>
Bit rate mode : Constant<br>
Bit rate : 256 kb/s<br>
Channel(s) : 6 channels<br>
Channel layout : L R C LFE Ls Rs<br>
Sampling rate : 48.0 kHz<br>
Frame rate : 31.250 FPS (1536 SPF)<br>
Compression mode : Lossy<br>
Stream size : 210 MiB (2%)<br>
Language : Polish<br>
Service kind : Complete Main<br>
Default : No<br>
Forced : No<br>
Dialog Normalization : -23 dB<br>
compr : -0.28 dB<br>
dmixmod : Lo/Ro<br>
ltrtcmixlev : -3.0 dB<br>
ltrtsurmixlev : -3.0 dB<br>
lorocmixlev : -3.0 dB<br>
lorosurmixlev : -3.0 dB<br>
dialnorm_Average : -23 dB<br>
dialnorm_Minimum : -23 dB<br>
dialnorm_Maximum : -23 dB<br>
<br>
Audio #10<br>
ID : 11<br>
Format : E-AC-3<br>
Format/Info : Enhanced AC-3<br>
Commercial name : Dolby Digital Plus<br>
Codec ID : A_EAC3<br>
Duration : 1 h 54 min<br>
Bit rate mode : Constant<br>
Bit rate : 256 kb/s<br>
Channel(s) : 6 channels<br>
Channel layout : L R C LFE Ls Rs<br>
Sampling rate : 48.0 kHz<br>
Frame rate : 31.250 FPS (1536 SPF)<br>
Compression mode : Lossy<br>
Stream size : 210 MiB (2%)<br>
Title : Brazilian<br>
Language : Portuguese<br>
Service kind : Complete Main<br>
Default : No<br>
Forced : No<br>
Dialog Normalization : -23 dB<br>
compr : -0.28 dB<br>
dmixmod : Lo/Ro<br>
ltrtcmixlev : -3.0 dB<br>
ltrtsurmixlev : -3.0 dB<br>
lorocmixlev : -3.0 dB<br>
lorosurmixlev : -3.0 dB<br>
dialnorm_Average : -23 dB<br>
dialnorm_Minimum : -23 dB<br>
dialnorm_Maximum : -23 dB<br>
<br>
Audio #11<br>
ID : 12<br>
Format : E-AC-3<br>
Format/Info : Enhanced AC-3<br>
Commercial name : Dolby Digital Plus<br>
Codec ID : A_EAC3<br>
Duration : 1 h 54 min<br>
Bit rate mode : Constant<br>
Bit rate : 256 kb/s<br>
Channel(s) : 6 channels<br>
Channel layout : L R C LFE Ls Rs<br>
Sampling rate : 48.0 kHz<br>
Frame rate : 31.250 FPS (1536 SPF)<br>
Compression mode : Lossy<br>
Stream size : 210 MiB (2%)<br>
Title : Brazilian (Audio Description)<br>
Language : Portuguese<br>
Service kind : Complete Main<br>
Default : No<br>
Forced : No<br>
Dialog Normalization : -23 dB<br>
compr : -0.28 dB<br>
dmixmod : Lo/Ro<br>
ltrtcmixlev : -3.0 dB<br>
ltrtsurmixlev : -3.0 dB<br>
lorocmixlev : -3.0 dB<br>
lorosurmixlev : -3.0 dB<br>
dialnorm_Average : -23 dB<br>
dialnorm_Minimum : -23 dB<br>
dialnorm_Maximum : -23 dB<br>
<br>
Audio #12<br>
ID : 13<br>
Format : E-AC-3<br>
Format/Info : Enhanced AC-3<br>
Commercial name : Dolby Digital Plus<br>
Codec ID : A_EAC3<br>
Duration : 1 h 54 min<br>
Bit rate mode : Constant<br>
Bit rate : 256 kb/s<br>
Channel(s) : 6 channels<br>
Channel layout : L R C LFE Ls Rs<br>
Sampling rate : 48.0 kHz<br>
Frame rate : 31.250 FPS (1536 SPF)<br>
Compression mode : Lossy<br>
Stream size : 210 MiB (2%)<br>
Language : Slovak<br>
Service kind : Complete Main<br>
Default : No<br>
Forced : No<br>
Dialog Normalization : -23 dB<br>
compr : -0.28 dB<br>
dmixmod : Lo/Ro<br>
ltrtcmixlev : -3.0 dB<br>
ltrtsurmixlev : -3.0 dB<br>
lorocmixlev : -3.0 dB<br>
lorosurmixlev : -3.0 dB<br>
dialnorm_Average : -23 dB<br>
dialnorm_Minimum : -23 dB<br>
dialnorm_Maximum : -23 dB<br>
<br>
Text #1<br>
ID : 14<br>
Format : UTF-8<br>
Codec ID : S_TEXT/UTF8<br>
Codec ID/Info : UTF-8 Plain Text<br>
Duration : 1 h 54 min<br>
Bit rate : 102 b/s<br>
Frame rate : 0.450 FPS<br>
Count of elements : 3091<br>
Stream size : 86.0 KiB (0%)<br>
Language : English<br>
Default : No<br>
Forced : No<br>
<br>
Text #2<br>
ID : 15<br>
Format : UTF-8<br>
Codec ID : S_TEXT/UTF8<br>
Codec ID/Info : UTF-8 Plain Text<br>
Duration : 1 h 53 min<br>
Bit rate : 50 b/s<br>
Frame rate : 0.114 FPS<br>
Count of elements : 778<br>
Stream size : 42.0 KiB (0%)<br>
Language : Bulgarian<br>
Default : No<br>
Forced : No<br>
<br>
Text #3<br>
ID : 16<br>
Format : UTF-8<br>
Codec ID : S_TEXT/UTF8<br>
Codec ID/Info : UTF-8 Plain Text<br>
Duration : 1 h 44 min<br>
Bit rate : 39 b/s<br>
Frame rate : 0.121 FPS<br>
Count of elements : 756<br>
Stream size : 30.2 KiB (0%)<br>
Language : Catalan<br>
Default : No<br>
Forced : No<br>
<br>
Text #4<br>
ID : 17<br>
Format : UTF-8<br>
Codec ID : S_TEXT/UTF8<br>
Codec ID/Info : UTF-8 Plain Text<br>
Duration : 1 h 53 min<br>
Bit rate : 32 b/s<br>
Frame rate : 0.118 FPS<br>
Count of elements : 805<br>
Stream size : 26.8 KiB (0%)<br>
Language : Czech<br>
Default : No<br>
Forced : No<br>
<br>
Text #5<br>
ID : 18<br>
Format : UTF-8<br>
Codec ID : S_TEXT/UTF8<br>
Codec ID/Info : UTF-8 Plain Text<br>
Duration : 1 h 53 min<br>
Bit rate : 27 b/s<br>
Frame rate : 0.078 FPS<br>
Count of elements : 529<br>
Stream size : 23.0 KiB (0%)<br>
Language : Danish<br>
Default : No<br>
Forced : No<br>
<br>
Text #6<br>
ID : 19<br>
Format : UTF-8<br>
Codec ID : S_TEXT/UTF8<br>
Codec ID/Info : UTF-8 Plain Text<br>
Duration : 1 h 54 min<br>
Bit rate : 85 b/s<br>
Frame rate : 0.354 FPS<br>
Count of elements : 2434<br>
Stream size : 72.0 KiB (0%)<br>
Title : Latin American<br>
Language : Spanish<br>
Default : No<br>
Forced : No<br>
<br>
Text #7<br>
ID : 20<br>
Format : UTF-8<br>
Codec ID : S_TEXT/UTF8<br>
Codec ID/Info : UTF-8 Plain Text<br>
Duration : 1 h 53 min<br>
Bit rate : 36 b/s<br>
Frame rate : 0.121 FPS<br>
Count of elements : 822<br>
Stream size : 30.2 KiB (0%)<br>
Title : European<br>
Language : Spanish<br>
Default : No<br>
Forced : No<br>
<br>
Text #8<br>
ID : 21<br>
Format : UTF-8<br>
Codec ID : S_TEXT/UTF8<br>
Codec ID/Info : UTF-8 Plain Text<br>
Duration : 1 h 53 min<br>
Bit rate : 29 b/s<br>
Frame rate : 0.133 FPS<br>
Count of elements : 906<br>
Stream size : 24.5 KiB (0%)<br>
Language : Finnish<br>
Default : No<br>
Forced : No<br>
<br>
Text #9<br>
ID : 22<br>
Format : UTF-8<br>
Codec ID : S_TEXT/UTF8<br>
Codec ID/Info : UTF-8 Plain Text<br>
Duration : 1 h 53 min<br>
Bit rate : 28 b/s<br>
Frame rate : 0.121 FPS<br>
Count of elements : 824<br>
Stream size : 23.9 KiB (0%)<br>
Language : French<br>
Default : No<br>
Forced : No<br>
<br>
Text #10<br>
ID : 23<br>
Format : UTF-8<br>
Codec ID : S_TEXT/UTF8<br>
Codec ID/Info : UTF-8 Plain Text<br>
Duration : 1 h 53 min<br>
Bit rate : 32 b/s<br>
Frame rate : 0.112 FPS<br>
Count of elements : 766<br>
Stream size : 27.0 KiB (0%)<br>
Language : Croatian<br>
Default : No<br>
Forced : No<br>
<br>
Text #11<br>
ID : 24<br>
Format : UTF-8<br>
Codec ID : S_TEXT/UTF8<br>
Codec ID/Info : UTF-8 Plain Text<br>
Duration : 1 h 53 min<br>
Bit rate : 35 b/s<br>
Frame rate : 0.122 FPS<br>
Count of elements : 830<br>
Stream size : 29.9 KiB (0%)<br>
Language : Hungarian<br>
Default : No<br>
Forced : No<br>
<br>
Text #12<br>
ID : 25<br>
Format : UTF-8<br>
Codec ID : S_TEXT/UTF8<br>
Codec ID/Info : UTF-8 Plain Text<br>
Duration : 1 h 44 min<br>
Bit rate : 58 b/s<br>
Frame rate : 0.124 FPS<br>
Count of elements : 775<br>
Stream size : 44.5 KiB (0%)<br>
Language : Macedonian<br>
Default : No<br>
Forced : No<br>
<br>
Text #13<br>
ID : 26<br>
Format : UTF-8<br>
Codec ID : S_TEXT/UTF8<br>
Codec ID/Info : UTF-8 Plain Text<br>
Duration : 1 h 53 min<br>
Bit rate : 30 b/s<br>
Frame rate : 0.092 FPS<br>
Count of elements : 624<br>
Stream size : 25.1 KiB (0%)<br>
Language : Norwegian Bokmal<br>
Default : No<br>
Forced : No<br>
<br>
Text #14<br>
ID : 27<br>
Format : UTF-8<br>
Codec ID : S_TEXT/UTF8<br>
Codec ID/Info : UTF-8 Plain Text<br>
Duration : 1 h 53 min<br>
Bit rate : 28 b/s<br>
Frame rate : 0.091 FPS<br>
Count of elements : 617<br>
Stream size : 23.3 KiB (0%)<br>
Language : Dutch<br>
Default : No<br>
Forced : No<br>
<br>
Text #15<br>
ID : 28<br>
Format : UTF-8<br>
Codec ID : S_TEXT/UTF8<br>
Codec ID/Info : UTF-8 Plain Text<br>
Duration : 1 h 53 min<br>
Bit rate : 29 b/s<br>
Frame rate : 0.111 FPS<br>
Count of elements : 756<br>
Stream size : 24.2 KiB (0%)<br>
Language : Polish<br>
Default : No<br>
Forced : No<br>
<br>
Text #16<br>
ID : 29<br>
Format : UTF-8<br>
Codec ID : S_TEXT/UTF8<br>
Codec ID/Info : UTF-8 Plain Text<br>
Duration : 1 h 53 min<br>
Bit rate : 35 b/s<br>
Frame rate : 0.118 FPS<br>
Count of elements : 801<br>
Stream size : 29.1 KiB (0%)<br>
Title : Brazilian<br>
Language : Portuguese<br>
Default : No<br>
Forced : No<br>
<br>
Text #17<br>
ID : 30<br>
Format : UTF-8<br>
Codec ID : S_TEXT/UTF8<br>
Codec ID/Info : UTF-8 Plain Text<br>
Duration : 1 h 53 min<br>
Bit rate : 38 b/s<br>
Frame rate : 0.114 FPS<br>
Count of elements : 774<br>
Stream size : 31.7 KiB (0%)<br>
Title : European<br>
Language : Portuguese<br>
Default : No<br>
Forced : No<br>
<br>
Text #18<br>
ID : 31<br>
Format : UTF-8<br>
Codec ID : S_TEXT/UTF8<br>
Codec ID/Info : UTF-8 Plain Text<br>
Duration : 1 h 53 min<br>
Bit rate : 33 b/s<br>
Frame rate : 0.110 FPS<br>
Count of elements : 752<br>
Stream size : 28.1 KiB (0%)<br>
Language : Romanian<br>
Default : No<br>
Forced : No<br>
<br>
Text #19<br>
ID : 32<br>
Format : UTF-8<br>
Codec ID : S_TEXT/UTF8<br>
Codec ID/Info : UTF-8 Plain Text<br>
Duration : 1 h 53 min<br>
Bit rate : 28 b/s<br>
Frame rate : 0.109 FPS<br>
Count of elements : 744<br>
Stream size : 24.0 KiB (0%)<br>
Language : Slovak<br>
Default : No<br>
Forced : No<br>
<br>
Text #20<br>
ID : 33<br>
Format : UTF-8<br>
Codec ID : S_TEXT/UTF8<br>
Codec ID/Info : UTF-8 Plain Text<br>
Duration : 1 h 53 min<br>
Bit rate : 28 b/s<br>
Frame rate : 0.101 FPS<br>
Count of elements : 689<br>
Stream size : 24.1 KiB (0%)<br>
Language : Slovenian<br>
Default : No<br>
Forced : No<br>
<br>
Text #21<br>
ID : 34<br>
Format : UTF-8<br>
Codec ID : S_TEXT/UTF8<br>
Codec ID/Info : UTF-8 Plain Text<br>
Duration : 1 h 53 min<br>
Bit rate : 27 b/s<br>
Frame rate : 0.113 FPS<br>
Count of elements : 772<br>
Stream size : 23.0 KiB (0%)<br>
Language : Serbian<br>
Default : No<br>
Forced : No<br>
<br>
Text #22<br>
ID : 35<br>
Format : UTF-8<br>
Codec ID : S_TEXT/UTF8<br>
Codec ID/Info : UTF-8 Plain Text<br>
Duration : 1 h 53 min<br>
Bit rate : 28 b/s<br>
Frame rate : 0.111 FPS<br>
Count of elements : 759<br>
Stream size : 24.0 KiB (0%)<br>
Language : Swedish<br>
Default : No<br>
Forced : No<br>
<br>
Menu<br>
00:00:00.000 : en:Scene 1<br>
01:47:12.884 : en:Credits</div>
</div><br>
<div class="ToggleTriggerAnchor bbCodeSpoilerContainer">
<button type="button" class="button bbCodeSpoilerButton ToggleTrigger Tooltip JsOnly" data-target="> .SpoilerTarget"><span>Spoiler: <span class="SpoilerTitle">Media Information - Extras</span></span></button>
<div class="SpoilerTarget bbCodeSpoilerText"><b><span style="text-decoration: underline">Godzilla X Kong: Godzilla Evolved</span></b><br>
General<br>
Complete name : Godzilla.X.Kong.Godzilla.Evolved.2024.1080p.MAX.WEB-DL.DDP2.0.x264-Samuel.mkv<br>
Format : Matroska<br>
Format version : Version 4<br>
File size : 322 MiB<br>
Duration : 5 min 37 s<br>
Overall bit rate mode : Variable<br>
Overall bit rate : 8 026 kb/s<br>
Frame rate : 23.976 FPS<br>
Encoded date : 2024-07-05 20:18:24 UTC<br>
Writing application : mkvmerge v85.0 ('Shame For You') 64-bit<br>
Writing library : libebml v1.4.5 + libmatroska v1.7.1<br>
<br>
Video<br>
ID : 1<br>
Format : AVC<br>
Format/Info : Advanced Video Codec<br>
Format profile : High@L4.1<br>
Format settings : CABAC / 4 Ref Frames<br>
Format settings, CABAC : Yes<br>
Format settings, Reference frames : 4 frames<br>
Codec ID : V_MPEG4/ISO/AVC<br>
Duration : 5 min 37 s<br>
Bit rate mode : Variable<br>
Bit rate : 7 896 kb/s<br>
Maximum bit rate : 10 000 kb/s<br>
Width : 1 920 pixels<br>
Height : 1 080 pixels<br>
Display aspect ratio : 16:9<br>
Frame rate mode : Constant<br>
Frame rate : 23.976 (24000/1001) FPS<br>
Color space : YUV<br>
Chroma subsampling : 4:2:0<br>
Bit depth : 8 bits<br>
Scan type : Progressive<br>
Bits/(Pixel*Frame) : 0.159<br>
Stream size : 317 MiB (98%)<br>
Writing library : x264 core 164<br>
Encoding settings : cabac=1 / ref=4 / deblock=1:0:0 / analyse=0x3:0x133 / me=umh / subme=10 / psy=1 / psy_rd=1.00:0.00 / mixed_ref=1 / me_range=24 / chroma_me=1 / trellis=2 / 8x8dct=1 / cqm=0 / deadzone=21,11 / fast_pskip=1 / chroma_qp_offset=-2 / threads=24 / lookahead_threads=2 / sliced_threads=0 / nr=0 / decimate=1 / interlaced=0 / bluray_compat=0 / stitchable=1 / constrained_intra=0 / bframes=3 / b_pyramid=2 / b_adapt=2 / b_bias=0 / direct=3 / weightb=1 / open_gop=0 / weightp=2 / keyint=96 / keyint_min=49 / scenecut=0 / intra_refresh=0 / rc_lookahead=96 / rc=crf / mbtree=1 / crf=20.0 / qcomp=0.60 / qpmin=0 / qpmax=69 / qpstep=4 / vbv_maxrate=10000 / vbv_bufsize=40000 / crf_max=0.0 / nal_hrd=vbr / filler=0 / ip_ratio=1.40 / aq=1:1.00<br>
Default : Yes<br>
Forced : No<br>
Color range : Limited<br>
Color primaries : BT.709<br>
Transfer characteristics : BT.709<br>
Matrix coefficients : BT.709<br>
<br>
Audio<br>
ID : 2<br>
Format : E-AC-3<br>
Format/Info : Enhanced AC-3<br>
Commercial name : Dolby Digital Plus<br>
Codec ID : A_EAC3<br>
Duration : 5 min 37 s<br>
Bit rate mode : Constant<br>
Bit rate : 128 kb/s<br>
Channel(s) : 2 channels<br>
Channel layout : L R<br>
Sampling rate : 48.0 kHz<br>
Frame rate : 31.250 FPS (1536 SPF)<br>
Compression mode : Lossy<br>
Stream size : 5.14 MiB (2%)<br>
Language : English<br>
Service kind : Complete Main<br>
Default : Yes<br>
Forced : No<br>
Dialog Normalization : -23 dB<br>
compr : -0.28 dB<br>
dialnorm_Average : -23 dB<br>
dialnorm_Minimum : -23 dB<br>
dialnorm_Maximum : -23 dB<br>
<br>
Text<br>
ID : 3<br>
Format : UTF-8<br>
Codec ID : S_TEXT/UTF8<br>
Codec ID/Info : UTF-8 Plain Text<br>
Duration : 5 min 22 s<br>
Bit rate : 143 b/s<br>
Frame rate : 0.379 FPS<br>
Count of elements : 122<br>
Stream size : 5.63 KiB (0%)<br>
Language : English<br>
Default : No<br>
Forced : No<br>
<br>
<b><span style="text-decoration: underline">Godzilla X Kong: Kong's Journey</span></b><br>
General<br>
Complete name : Godzilla.X.Kong.Kongs.Journey.2024.1080p.MAX.WEB-DL.DDP2.0.x264-Samuel.mkv<br>
Format : Matroska<br>
Format version : Version 4<br>
File size : 298 MiB<br>
Duration : 5 min 48 s<br>
Overall bit rate mode : Variable<br>
Overall bit rate : 7 181 kb/s<br>
Frame rate : 23.976 FPS<br>
Encoded date : 2024-07-05 20:21:31 UTC<br>
Writing application : mkvmerge v85.0 ('Shame For You') 64-bit<br>
Writing library : libebml v1.4.5 + libmatroska v1.7.1<br>
<br>
Video<br>
ID : 1<br>
Format : AVC<br>
Format/Info : Advanced Video Codec<br>
Format profile : High@L4.1<br>
Format settings : CABAC / 4 Ref Frames<br>
Format settings, CABAC : Yes<br>
Format settings, Reference frames : 4 frames<br>
Codec ID : V_MPEG4/ISO/AVC<br>
Duration : 5 min 48 s<br>
Bit rate mode : Variable<br>
Bit rate : 7 051 kb/s<br>
Maximum bit rate : 10 000 kb/s<br>
Width : 1 920 pixels<br>
Height : 1 080 pixels<br>
Display aspect ratio : 16:9<br>
Frame rate mode : Constant<br>
Frame rate : 23.976 (24000/1001) FPS<br>
Color space : YUV<br>
Chroma subsampling : 4:2:0<br>
Bit depth : 8 bits<br>
Scan type : Progressive<br>
Bits/(Pixel*Frame) : 0.142<br>
Stream size : 293 MiB (98%)<br>
Writing library : x264 core 164<br>
Encoding settings : cabac=1 / ref=4 / deblock=1:0:0 / analyse=0x3:0x133 / me=umh / subme=10 / psy=1 / psy_rd=1.00:0.00 / mixed_ref=1 / me_range=24 / chroma_me=1 / trellis=2 / 8x8dct=1 / cqm=0 / deadzone=21,11 / fast_pskip=1 / chroma_qp_offset=-2 / threads=24 / lookahead_threads=2 / sliced_threads=0 / nr=0 / decimate=1 / interlaced=0 / bluray_compat=0 / stitchable=1 / constrained_intra=0 / bframes=3 / b_pyramid=2 / b_adapt=2 / b_bias=0 / direct=3 / weightb=1 / open_gop=0 / weightp=2 / keyint=96 / keyint_min=49 / scenecut=0 / intra_refresh=0 / rc_lookahead=96 / rc=crf / mbtree=1 / crf=20.0 / qcomp=0.60 / qpmin=0 / qpmax=69 / qpstep=4 / vbv_maxrate=10000 / vbv_bufsize=40000 / crf_max=0.0 / nal_hrd=vbr / filler=0 / ip_ratio=1.40 / aq=1:1.00<br>
Default : Yes<br>
Forced : No<br>
Color range : Limited<br>
Color primaries : BT.709<br>
Transfer characteristics : BT.709<br>
Matrix coefficients : BT.709<br>
<br>
Audio<br>
ID : 2<br>
Format : E-AC-3<br>
Format/Info : Enhanced AC-3<br>
Commercial name : Dolby Digital Plus<br>
Codec ID : A_EAC3<br>
Duration : 5 min 48 s<br>
Bit rate mode : Constant<br>
Bit rate : 128 kb/s<br>
Channel(s) : 2 channels<br>
Channel layout : L R<br>
Sampling rate : 48.0 kHz<br>
Frame rate : 31.250 FPS (1536 SPF)<br>
Compression mode : Lossy<br>
Stream size : 5.31 MiB (2%)<br>
Language : English<br>
Service kind : Complete Main<br>
Default : Yes<br>
Forced : No<br>
Dialog Normalization : -23 dB<br>
compr : -0.28 dB<br>
dialnorm_Average : -23 dB<br>
dialnorm_Minimum : -23 dB<br>
dialnorm_Maximum : -23 dB<br>
<br>
Text<br>
ID : 3<br>
Format : UTF-8<br>
Codec ID : S_TEXT/UTF8<br>
Codec ID/Info : UTF-8 Plain Text<br>
Duration : 5 min 31 s<br>
Bit rate : 132 b/s<br>
Frame rate : 0.383 FPS<br>
Count of elements : 127<br>
Stream size : 5.35 KiB (0%)<br>
Language : English<br>
Default : No<br>
Forced : No</div>
</div><br>
<b>Screenshots</b><br>
<img src="https://i.imgur.com/aUZ8TV3.png" class="bbCodeImage LbImage" alt="[​IMG]" data-url="https://i.imgur.com/aUZ8TV3.png" style=""><br>
<b><a href="https://imgur.com/a/hRJHaEG" target="_blank" class="externalLink" rel="nofollow">Extras Screenshots</a></b><br>
<br>
<b>Download</b><br>
<div class="bbCodeBlock bbCodeVfcHH HiddenContent">
<div class="attribution type">Hidden Content:</div>
<blockquote>You must reply before you can see the hidden data contained here.</blockquote>
</div></div>
<div class="messageTextEndMarker">&nbsp;</div>
</blockquote>
</article>]]></description>
                <author><![CDATA[Samuel]]></author>
                </item>

                
                <item>
                <title><![CDATA[【Albums (lossless)】FLAC - Ado - Adoの歌ってみたアルバム (TYCT-60222) [CD | 100% LOG | 16bit/44.1kHz | 1 135 kb/s]]]></title>
                <link><![CDATA[https://sharemania.us/threads/ado-ado%E3%81%AE%E6%AD%8C%E3%81%A3%E3%81%A6%E3%81%BF%E3%81%9F%E3%82%A2%E3%83%AB%E3%83%90%E3%83%A0-tyct-60222-cd-100-log-16bit-44-1khz-1-135-kb-s.249137/]]></link>
                <description><![CDATA[<article>
<blockquote class="messageText SelectQuoteContainer ugc baseHtml">
<img src="https://a5.mzstatic.com/us/r1000/0/Music116/v4/fa/e9/42/fae942a7-dca5-6cc0-9e49-4a4f2da6b81e/23UM1IM45777.rgb.jpg" class="bbCodeImage LbImage" alt="[​IMG]" data-url="https://a5.mzstatic.com/us/r1000/0/Music116/v4/fa/e9/42/fae942a7-dca5-6cc0-9e49-4a4f2da6b81e/23UM1IM45777.rgb.jpg" style=""><br>
<br>
<span style="font-family: 'Book Antiqua'"><b><b>Artist</b>: </b>Ado<br>
<b><b>Album</b>: </b>Ado's Utattemita Album / Adoの歌ってみたアルバム<br>
<b><b>Release</b>: </b>13/12/2023</span><br>
<span style="font-family: 'Times New Roman'"><b><b>Format</b>: .</b>flac Free Lossless Audio Codec<br>
<b><b>Sample Rate</b>: </b>1 135 Kbps, 44.100 kHz - 2.0ch<br>
<b><b>Quality</b>: </b>High Quality, Lossless Audio</span><br>
<b><span style="font-family: 'Book Antiqua'"><b>Source</b>: <a href="https://music.apple.com/jp/album/ados-utattemita-album/1718531990" target="_blank" class="externalLink" rel="nofollow">C</a>D</span><br>
<br>
<span style="font-family: 'Book Antiqua'">TRACKLIST :</span></b><br>
<span style="font-family: 'Book Antiqua'">1. Dried Flowers<br>
2. Kazarijyanainoyonamidawa<br>
3. Aishite Aishite Aishite<br>
4. Crime And Punishment<br>
5. Kawaikute Gomen<br>
6. Villain<br>
7. God-ish<br>
8. unravel<br>
9. Buriki No Dance<br>
10. Dawn and Fireflies<br>
<br>
<div class="ToggleTriggerAnchor bbCodeSpoilerContainer">
<button type="button" class="button bbCodeSpoilerButton ToggleTrigger Tooltip JsOnly" data-target="> .SpoilerTarget"><span>Spoiler: <span class="SpoilerTitle">EAC LOG</span></span></button>
<div class="SpoilerTarget bbCodeSpoilerText">
<div class="bbCodeBlock bbCodeCode">
<div class="type">Code:</div>
<pre>==== Log checksum 3CEEDF193C309F4E2E67ECE09B9723E2A8A7E0359CE5EF689521DD2EA65A68A7 ====

------------------------------------------------------------

Exact Audio Copy V1.6 from 23. October 2020

EAC extraction logfile from 7. July 2024, 19:08

Ado / Adoの歌ってみたアルバム

Used drive  : TSSTcorpCDDVDW SH-222AB   Adapter: 1  ID: 0

Read mode               : Secure
Utilize accurate stream : Yes
Defeat audio cache      : No
Make use of C2 pointers : No

Combined read/write offset correction       : 0
Overread into Lead-In and Lead-Out          : No
Fill up missing offset samples with silence : Yes
Delete leading and trailing silent blocks   : No
Null samples used in CRC calculations       : Yes
Used interface                              : Native Win32 interface for Win NT &amp; 2000
Gap handling                                : Not detected, thus appended to previous track

Used output format              : User Defined Encoder
Selected bitrate                : 1024 kBit/s
Quality                         : High
Add ID3 tag                     : No
Command line compressor         : C:\Program Files (x86)\Exact Audio Copy\FLAC\FLAC.EXE
Additional command line options : -6 -V -T "ARTIST=%artist%" -T "TITLE=%title%" -T "ALBUM=%albumtitle%" -T "DATE=%year%" -T "TRACKNUMBER=%tracknr%" -T "GENRE=%genre%" -T "COMMENT=%comment%" -T "BAND=%albuminterpret%" -T "ALBUMARTIST=%albuminterpret%" -T "COMPOSER=%composer%" %haslyrics%--tag-from-file=LYRICS="%lyricsfile%"%haslyrics% -T "DISCNUMBER=%cdnumber%" -T "TOTALDISCS=%totalcds%" -T "TOTALTRACKS=%numtracks%" %hascover%--picture="%coverfile%"%hascover% %source% -o %dest%


TOC of the extracted CD

     Track |   Start  |  Length  | Start sector | End sector
    ---------------------------------------------------------
        1  |  0:00.00 |  4:48.60 |         0    |    21659   
        2  |  4:48.60 |  4:12.43 |     21660    |    40602   
        3  |  9:01.28 |  4:18.28 |     40603    |    59980   
        4  | 13:19.56 |  4:50.54 |     59981    |    81784   
        5  | 18:10.35 |  3:39.10 |     81785    |    98219   
        6  | 21:49.45 |  3:19.60 |     98220    |   113204   
        7  | 25:09.30 |  3:24.38 |    113205    |   128542   
        8  | 28:33.68 |  3:58.27 |    128543    |   146419   
        9  | 32:32.20 |  3:18.67 |    146420    |   161336   
       10  | 35:51.12 |  5:08.63 |    161337    |   184499   


Track  1

     Filename C:\Users\Maxime\Desktop\01. ドライフラワー.wav

     Peak level 100.0 %
     Extraction speed 8.0 X
     Track quality 100.0 %
     Copy CRC C6074ACF
     Copy OK

Track  2

     Filename C:\Users\Maxime\Desktop\02. 飾りじゃないのよ 涙は.wav

     Peak level 99.8 %
     Extraction speed 8.8 X
     Track quality 100.0 %
     Copy CRC 1CB8D142
     Copy OK

Track  3

     Filename C:\Users\Maxime\Desktop\03. 愛して愛して愛して.wav

     Peak level 100.0 %
     Extraction speed 9.6 X
     Track quality 100.0 %
     Copy CRC C8279BB2
     Copy OK

Track  4

     Filename C:\Users\Maxime\Desktop\04. 罪と罰.wav

     Peak level 100.0 %
     Extraction speed 10.3 X
     Track quality 100.0 %
     Copy CRC 992B858E
     Copy OK

Track  5

     Filename C:\Users\Maxime\Desktop\05. 可愛くてごめん.wav

     Peak level 99.8 %
     Extraction speed 10.2 X
     Track quality 99.9 %
     Copy CRC 81EAD8B9
     Copy OK

Track  6

     Filename C:\Users\Maxime\Desktop\06. ヴィラン.wav

     Peak level 99.8 %
     Extraction speed 10.7 X
     Track quality 100.0 %
     Copy CRC D321042A
     Copy OK

Track  7

     Filename C:\Users\Maxime\Desktop\07. 神っぽいな.wav

     Peak level 100.0 %
     Extraction speed 10.9 X
     Track quality 99.9 %
     Copy CRC D9D9F1CF
     Copy OK

Track  8

     Filename C:\Users\Maxime\Desktop\08. unravel.wav

     Peak level 99.8 %
     Extraction speed 11.0 X
     Track quality 99.9 %
     Copy CRC FB6AA7CA
     Copy OK

Track  9

     Filename C:\Users\Maxime\Desktop\09. ブリキノダンス.wav

     Peak level 99.8 %
     Extraction speed 11.0 X
     Track quality 99.9 %
     Copy CRC 44BF1AB2
     Copy OK

Track 10

     Filename C:\Users\Maxime\Desktop\10. 夜明けと蛍.wav

     Peak level 100.0 %
     Extraction speed 12.7 X
     Track quality 100.0 %
     Copy CRC D483D2D5
     Copy OK

No errors occurred

End of status report

==== Log checksum EF7F81ADA186EE689BD66D86B8C03510E47902F3E20B662FB4E92011D420CBAC ====
</pre>
</div></div>
</div></span><br>
<br>
<div class="bbCodeBlock bbCodeVfcHH HiddenContent">
<div class="attribution type">Hidden Content:</div>
<blockquote>You must reply before you can see the hidden data contained here.</blockquote>
</div>
<div class="messageTextEndMarker">&nbsp;</div>
</blockquote>
</article>]]></description>
                <author><![CDATA[SonMaxime]]></author>
                </item>

                
                <item>
                <title><![CDATA[【UPSCALED】aespa - Hot Mess [RTX HDR10]]]></title>
                <link><![CDATA[https://sharemania.us/threads/aespa-hot-mess-rtx-hdr10.249136/]]></link>
                <description><![CDATA[<article>
<blockquote class="messageText SelectQuoteContainer ugc baseHtml">
<span style="font-size: 18px">It's time for <i><span style="text-decoration: underline"><span style="color: #8000ff"><b>aespa</b></span></span> </i>Japanese mini-Album<br>
enjoy everybody<br>
<br>
</span>
<div class="bbCodeBlock bbCodeVfcHH HiddenContent">
<div class="attribution type">Hidden Content:</div>
<blockquote>You must either reply or click 'Like' to see the hidden information contained here.</blockquote>
</div><br>
<span style="font-size: 18px">
<div class="bbCodeBlock bbCodeVfcHH HiddenContent">
<div class="attribution type">Hidden Content:</div>
<blockquote>You must reply before you can see the hidden data contained here.</blockquote>
</div></span>
<div class="messageTextEndMarker">&nbsp;</div>
</blockquote>
</article>]]></description>
                <author><![CDATA[ch3v4li3r]]></author>
                </item>

                </channel></rss>